<?xml version="1.0" encoding="UTF-8" standalone="no"?>
<!DOCTYPE svg PUBLIC "-//W3C//DTD SVG 1.1//EN" "http://www.w3.org/Graphics/SVG/1.1/DTD/svg11.dtd">
<svg xmlns="http://www.w3.org/2000/svg" version="1.1" viewBox="0 0 552 187">
<path fill="#231816" d="M 119.93,136.43 Q 104.66,151.32 83.00,149.73 Q 74.47,149.10 66.89,145.15 Q 50.72,136.72 44.81,120.94 Q 39.99,108.05 43.12,92.72 Q 47.70,70.33 54.63,48.10 A 1.16,1.08 8.7 0 0 53.52,46.69 L 46.74,46.56 Q 46.17,46.55 46.67,46.22 Q 52.08,42.55 57.64,39.13 Q 62.29,36.28 64.92,36.10 Q 68.95,35.83 70.78,39.54 Q 71.74,41.52 71.71,45.63 Q 71.64,53.32 71.98,61.00 A 0.39,0.38 -9.9 0 0 72.48,61.35 Q 79.94,58.99 85.44,58.94 Q 117.09,58.61 148.75,58.87 Q 152.01,58.90 154.89,58.54 Q 156.05,58.40 155.08,59.05 L 128.14,77.07 A 2.54,2.49 -61.3 0 1 126.69,77.51 Q 106.79,77.35 87.83,77.66 Q 81.96,77.76 78.37,79.10 Q 71.32,81.74 66.63,87.43 Q 62.17,92.83 60.83,100.04 Q 58.45,112.88 67.81,122.94 Q 76.40,132.17 88.31,131.42 Q 96.40,130.91 102.94,126.43 Q 109.99,121.60 112.68,113.46 Q 115.54,104.82 113.03,96.50 Q 110.40,87.74 102.05,82.18 Q 101.41,81.75 102.18,81.75 L 126.20,81.81 A 0.95,0.91 72.6 0 1 126.97,82.23 Q 128.87,85.06 130.00,88.29 Q 136.76,107.53 127.31,126.06 Q 124.10,132.36 119.93,136.43 Z"/>
<path fill="#180f0b" d="M 331.80,91.19 Q 330.90,94.42 333.18,91.97 Q 338.22,86.55 344.44,83.69 Q 347.43,82.31 350.64,84.38 Q 360.23,90.57 356.75,102.50 Q 353.52,113.55 346.82,120.57 Q 336.17,131.70 323.83,122.42 Q 322.70,121.57 322.75,122.98 Q 322.78,123.70 322.45,124.29 Q 321.96,125.17 321.85,125.43 Q 321.02,127.50 319.25,126.42 Q 318.82,126.16 317.36,125.00 Q 312.45,121.12 314.34,114.57 Q 320.57,92.92 324.00,72.00 Q 324.67,67.93 324.79,63.05 Q 324.84,60.94 325.26,60.15 Q 326.29,58.21 329.02,60.00 Q 333.29,62.80 334.75,67.19 Q 335.75,70.18 334.94,75.85 Q 333.75,84.18 331.80,91.19 ZM 332.80,104.46 Q 329.91,108.36 327.42,113.20 A 1.37,1.37 32.4 0 0 327.81,114.92 Q 330.68,117.11 333.39,117.19 Q 335.74,117.25 338.45,114.95 Q 346.71,107.91 347.82,95.98 Q 348.01,93.97 346.02,94.34 Q 341.60,95.16 338.26,98.09 Q 336.16,99.93 332.80,104.46 Z"/>
<path fill="#1c1310" d="M 373.58,61.83 Q 373.87,57.48 377.48,59.92 Q 385.28,65.21 383.82,74.51 Q 382.55,82.59 380.50,90.50 Q 379.54,94.21 382.19,91.44 Q 386.18,87.26 391.28,84.56 Q 397.08,81.49 401.94,86.56 Q 404.96,89.72 405.98,93.24 Q 406.85,96.23 405.81,100.73 Q 403.88,109.05 398.69,116.69 Q 395.24,121.76 390.62,124.32 Q 381.16,129.58 372.92,122.55 A 0.91,0.82 32.3 0 0 371.54,122.79 L 370.37,125.63 A 1.67,1.57 -65.8 0 1 368.17,126.55 Q 360.95,122.97 363.04,115.12 Q 368.94,92.95 371.25,80.00 Q 373.01,70.16 373.58,61.83 ZM 382.37,103.11 Q 378.32,108.10 375.70,114.04 A 0.66,0.64 -59.0 0 0 375.88,114.82 Q 382.41,120.09 388.30,114.04 Q 395.43,106.71 396.57,95.85 A 1.38,1.37 -0.5 0 0 395.03,94.35 Q 390.82,94.86 387.64,97.42 Q 385.77,98.92 382.37,103.11 Z"/>
<path fill="#221613" d="M 421.63,59.50 Q 422.70,58.51 424.31,59.44 Q 428.42,61.79 430.40,66.25 Q 431.57,68.89 431.30,72.92 Q 429.98,92.17 424.65,110.72 Q 424.63,110.79 423.16,116.47 Q 421.82,121.65 419.29,126.26 A 1.10,1.09 -61.6 0 1 417.83,126.70 Q 413.28,124.30 411.81,120.33 A 4.57,4.53 42.8 0 1 411.69,117.54 Q 419.54,89.08 420.88,61.61 Q 420.96,60.12 421.63,59.50 Z"/>
<path fill="#120a02" d="M 188.54,116.99 Q 194.34,116.08 199.20,111.45 Q 201.09,109.66 199.71,107.45 Q 197.80,104.39 194.85,101.64 Q 189.62,96.75 184.56,91.69 Q 183.22,90.35 182.14,88.35 Q 181.13,86.50 181.20,84.45 Q 181.30,81.48 182.40,78.76 Q 183.36,76.37 185.82,74.25 Q 195.32,66.07 206.25,64.50 Q 214.10,63.37 216.18,71.40 Q 216.65,73.20 214.99,74.04 Q 212.75,75.19 209.52,75.84 Q 201.64,77.43 194.34,81.64 Q 191.65,83.19 193.77,85.46 Q 197.54,89.48 202.94,93.81 Q 207.02,97.09 209.82,102.52 Q 211.89,106.52 211.56,110.33 Q 211.10,115.68 207.61,119.36 Q 203.71,123.48 196.84,125.63 Q 190.72,127.55 183.99,126.32 Q 179.61,125.51 176.14,123.03 Q 172.79,120.62 171.13,118.21 Q 168.80,114.82 170.20,110.83 Q 171.35,107.58 174.17,109.55 Q 177.77,112.06 181.06,114.94 Q 182.25,115.98 184.64,116.70 Q 186.60,117.29 188.54,116.99 Z"/>
<path fill="#120a02" d="M 306.97,79.81 Q 303.95,78.58 301.99,75.98 Q 300.01,73.36 300.69,70.64 Q 301.46,67.61 304.71,65.93 Q 306.48,65.01 307.79,66.51 Q 310.61,69.74 312.25,73.35 Q 314.13,77.51 311.75,79.45 Q 309.84,80.99 306.97,79.81 Z"/>
<path fill="#1c1310" d="M 272.86,86.91 Q 273.41,89.04 275.05,87.58 Q 281.01,82.25 288.71,83.04 Q 290.61,83.23 291.59,84.02 Q 293.37,85.44 291.69,87.69 Q 290.27,89.58 287.47,91.40 Q 283.62,93.90 282.87,94.56 Q 276.96,99.80 275.18,107.62 Q 274.13,112.26 274.11,112.33 Q 272.60,117.62 270.50,122.71 Q 269.77,124.48 268.40,125.68 Q 266.91,126.98 265.16,126.56 Q 263.02,126.05 262.03,123.70 Q 260.20,119.38 262.06,115.06 Q 263.37,112.02 264.63,105.91 Q 265.51,101.62 265.43,96.50 Q 265.36,91.77 265.28,87.04 Q 265.24,84.99 265.94,84.13 Q 267.09,82.71 269.45,83.62 Q 272.30,84.72 272.86,86.91 Z"/>
<path fill="#120a02" d="M 251.98,114.07 A 1.78,1.78 -69.7 0 1 253.05,116.40 Q 252.20,118.58 250.69,119.92 Q 247.04,123.15 242.61,124.92 Q 238.25,126.65 235.41,126.75 Q 231.75,126.88 227.94,124.81 Q 222.52,121.88 220.06,117.19 Q 218.69,114.57 219.43,110.78 Q 221.79,98.58 230.65,89.90 Q 235.06,85.59 240.93,83.67 Q 243.28,82.91 245.46,83.45 Q 247.35,83.91 249.17,85.69 Q 251.70,88.17 253.00,91.51 Q 253.70,93.31 253.24,94.54 Q 252.43,96.69 249.25,95.00 Q 245.75,93.14 242.75,94.80 Q 241.25,95.63 238.31,98.80 Q 234.43,102.98 231.99,108.21 Q 230.58,111.24 231.20,114.25 Q 231.56,116.01 233.34,116.23 Q 240.30,117.09 246.78,114.99 Q 246.86,114.97 248.54,114.25 Q 250.31,113.49 251.98,114.07 Z"/>
<path fill="#180f0b" d="M 300.14,84.27 Q 301.15,82.53 302.88,83.53 Q 310.26,87.77 308.25,96.25 Q 306.41,104.02 300.36,122.40 Q 299.52,124.96 298.65,125.84 Q 296.93,127.58 294.31,126.44 Q 292.20,125.51 291.67,123.21 Q 291.37,121.88 291.91,119.32 Q 294.96,104.81 297.89,90.28 Q 298.54,87.04 300.14,84.27 Z"/>
<path fill="#221613" d="M 467.06,88.19 Q 471.10,92.57 471.68,97.70 Q 472.01,100.60 470.27,102.86 Q 467.87,105.98 463.93,107.41 Q 454.82,110.72 445.25,108.85 A 0.52,0.44 7.6 0 0 444.63,109.24 L 444.37,115.58 Q 444.31,117.26 446.21,117.58 Q 452.84,118.67 459.75,116.62 Q 463.07,115.64 466.14,115.96 Q 468.42,116.20 467.78,118.41 Q 467.22,120.31 465.73,121.46 Q 458.19,127.29 449.42,126.72 Q 441.81,126.23 437.50,121.35 Q 432.55,115.75 434.69,106.94 Q 437.58,95.03 447.18,87.54 Q 452.31,83.54 456.70,83.36 Q 462.40,83.12 467.06,88.19 ZM 450.55,97.91 Q 449.25,99.33 448.69,101.21 A 0.43,0.41 10.8 0 0 449.06,101.74 Q 455.78,102.40 460.69,100.19 Q 462.18,99.51 462.29,97.86 Q 462.36,96.65 461.32,95.58 Q 457.20,91.35 453.17,95.29 Q 451.10,97.31 450.55,97.91 Z"/>
<path fill="#180f0b" d="M 508.06,85.94 Q 510.75,88.91 511.61,91.55 Q 513.23,96.54 509.24,95.33 Q 506.27,94.43 506.20,94.41 Q 500.53,93.47 495.22,96.78 Q 492.50,98.47 494.85,100.65 Q 497.16,102.78 501.06,105.16 Q 507.96,109.36 508.50,116.25 Q 508.62,117.84 507.32,119.62 Q 506.47,120.78 504.82,122.02 Q 492.15,131.52 478.06,122.70 Q 474.92,120.74 474.75,117.50 Q 474.57,114.08 477.22,114.31 Q 478.00,114.38 480.29,115.40 Q 487.64,118.68 495.84,116.98 A 1.14,1.14 82.6 0 0 496.74,115.81 Q 496.60,113.07 494.15,111.31 Q 491.07,109.10 488.06,106.78 Q 483.77,103.48 482.68,101.51 Q 480.11,96.83 485.44,92.19 Q 492.05,86.42 499.55,83.91 Q 502.28,83.00 504.02,83.41 Q 506.25,83.94 508.06,85.94 Z"/>
</svg>
